<?xml version="1.0" standalone="no"?>
<!DOCTYPE svg PUBLIC "-//W3C//DTD SVG 20010904//EN"
 "http://www.w3.org/TR/2001/REC-SVG-20010904/DTD/svg10.dtd">
<svg version="1.0" xmlns="http://www.w3.org/2000/svg"
 width="1080.000000pt" height="1080.000000pt" viewBox="0 0 1080.000000 1080.000000"
 preserveAspectRatio="xMidYMid meet">
<metadata>
Created by potrace 1.14, written by Peter Selinger 2001-2017
</metadata>
<g transform="translate(0.000000,1080.000000) scale(0.100000,-0.100000)"
fill="#000000" stroke="none">
<path d="M3899 7579 c-59 -13 -139 -48 -187 -81 -52 -36 -132 -112 -132 -127
0 -5 -4 -11 -8 -13 -14 -6 -59 -92 -77 -148 -10 -30 -28 -79 -41 -108 -13 -29
-24 -57 -24 -62 0 -6 -4 -10 -9 -10 -7 0 -22 -37 -25 -62 -1 -4 -9 -16 -18
-28 -10 -11 -16 -20 -13 -20 3 0 -5 -19 -17 -42 -12 -24 -23 -45 -23 -48 -1
-3 -18 -41 -39 -85 -21 -44 -53 -112 -72 -152 -37 -77 -43 -126 -19 -160 14
-20 68 -41 90 -34 10 3 123 26 177 36 16 3 56 12 90 19 35 8 79 17 98 20 20 3
63 12 98 20 36 8 64 10 68 5 3 -5 3 -9 -1 -9 -3 0 1 -13 10 -30 9 -16 13 -30
9 -30 -4 0 -2 -6 3 -12 6 -7 14 -33 18 -58 4 -25 9 -57 11 -72 3 -15 6 -42 7
-60 1 -18 5 -37 8 -43 6 -11 3 -316 -4 -357 -2 -16 0 -28 5 -28 5 0 6 -6 1
-12 -8 -14 -9 -18 -17 -233 -3 -77 -6 -142 -6 -145 -7 -28 5 -319 15 -350 4
-14 14 -68 17 -97 1 -7 5 -13 9 -13 4 0 6 -8 5 -17 -2 -9 3 -28 11 -42 7 -15
13 -34 13 -43 0 -10 5 -18 10 -18 6 0 10 -6 10 -14 0 -18 29 -73 53 -100 9
-11 17 -23 17 -28 0 -16 89 -111 172 -183 25 -22 58 -65 74 -95 26 -51 97
-151 128 -182 7 -8 33 -30 56 -49 23 -18 48 -40 55 -46 8 -7 16 -13 20 -13 3
0 21 -11 38 -24 69 -51 293 -144 386 -161 19 -3 37 -8 41 -10 4 -2 22 -7 41
-10 19 -3 61 -10 94 -16 66 -12 100 -16 194 -23 35 -3 66 -8 69 -11 3 -3 6
-109 6 -237 l1 -231 -34 -14 c-18 -8 -35 -23 -38 -34 -3 -10 -10 -19 -15 -19
-5 0 -7 -12 -5 -27 11 -78 41 -93 182 -93 138 0 167 14 181 85 6 31 -30 82
-63 89 l-28 6 1 133 c0 72 2 137 4 142 1 6 1 12 0 15 -5 11 -5 190 0 191 3 1
19 2 35 4 181 15 178 15 325 47 168 36 375 123 498 210 94 66 242 236 242 278
0 5 4 10 8 10 7 0 26 47 38 93 1 4 2 8 4 10 8 10 13 56 14 139 l1 97 31 5 c40
8 181 53 221 72 17 8 34 14 37 14 28 0 209 145 206 164 0 4 7 21 16 38 24 46
25 142 4 200 -10 26 -15 49 -12 52 3 4 0 6 -6 6 -27 0 -9 27 26 39 110 40 229
136 272 222 19 36 23 60 23 139 0 65 -5 107 -16 133 -9 20 -16 40 -16 42 -1
17 -126 127 -179 158 -151 88 -339 97 -508 22 -30 -13 -54 -22 -54 -20 0 15
-348 -188 -390 -227 -11 -10 -24 -18 -30 -18 -5 0 -10 -4 -10 -10 0 -5 -6 -10
-14 -10 -8 0 -16 -4 -18 -8 -1 -4 -50 -41 -108 -82 -58 -41 -107 -77 -110 -80
-3 -3 -39 -29 -80 -59 l-74 -54 -61 12 c-145 30 -214 41 -270 46 -89 6 -224 6
-276 0 -46 -5 -46 -5 -105 58 -129 135 -206 242 -307 427 -35 64 -137 269
-137 275 0 3 -13 32 -29 65 -16 33 -27 60 -24 60 3 0 -2 11 -11 25 -9 14 -14
25 -10 25 4 0 2 6 -3 13 -5 6 -16 32 -23 57 -7 25 -17 50 -21 55 -4 6 -10 22
-13 37 -2 14 -9 36 -16 47 -6 12 -7 21 -3 21 4 0 2 5 -5 12 -7 7 -12 22 -12
35 0 13 -4 23 -8 23 -5 0 -9 6 -10 13 -5 39 -9 54 -16 66 -5 7 -10 25 -12 40
-2 14 -7 44 -12 66 -4 22 -8 61 -7 88 0 26 -3 47 -7 47 -3 0 -5 8 -4 18 2 9
-3 40 -11 67 -41 141 -157 278 -288 340 -40 19 -82 35 -93 35 -12 0 -23 4 -26
8 -6 11 -191 12 -237 1z m221 -189 c132 -40 233 -155 254 -290 4 -25 10 -72
12 -105 5 -57 10 -97 14 -102 2 -2 3 -11 4 -20 2 -10 11 -45 21 -78 11 -33 19
-62 20 -65 4 -23 60 -178 68 -187 5 -7 6 -13 2 -13 -4 0 -3 -6 2 -12 6 -7 16
-31 23 -53 15 -46 92 -227 141 -330 18 -38 32 -73 31 -77 -1 -5 2 -8 7 -8 5 0
14 -14 21 -31 21 -50 176 -305 200 -329 3 -3 25 -32 50 -65 25 -32 85 -101
134 -153 89 -92 119 -110 171 -104 11 1 83 3 160 4 162 2 244 -7 385 -38 36
-8 81 -19 101 -23 19 -4 46 -4 58 1 12 4 115 74 229 156 114 81 224 159 244
172 21 14 38 28 38 33 0 4 5 7 11 7 6 0 25 11 43 25 18 14 38 25 44 25 7 0 12
3 12 8 0 4 17 16 38 27 20 11 39 22 42 25 10 12 148 79 214 105 48 19 95 28
156 32 83 5 92 4 153 -25 73 -34 118 -70 148 -119 18 -29 22 -51 17 -107 -2
-30 -89 -110 -152 -140 -31 -15 -92 -34 -134 -42 -89 -17 -116 -32 -130 -72
-12 -36 3 -73 49 -123 36 -39 68 -93 73 -125 14 -89 -121 -174 -364 -230 -171
-40 -181 -47 -174 -133 9 -110 5 -246 -6 -246 -1 0 -3 -9 -5 -19 -2 -10 -7
-22 -12 -25 -4 -3 -9 -12 -11 -20 -11 -54 -190 -241 -231 -241 -6 0 -11 -4
-11 -8 0 -22 -322 -149 -399 -158 -14 -1 -37 -5 -51 -8 -176 -35 -518 -40
-661 -10 -13 2 -49 9 -79 15 -71 13 -172 40 -185 49 -5 4 -23 10 -40 14 -30 8
-176 74 -185 85 -3 3 -18 13 -35 21 -42 22 -179 159 -196 198 -7 17 -18 32
-22 32 -5 0 -5 5 -2 10 3 6 1 10 -4 10 -6 0 -11 7 -11 15 0 29 -23 61 -68 95
-67 50 -144 128 -179 180 -39 58 -74 131 -68 141 3 4 1 10 -5 14 -6 4 -8 11
-5 16 4 5 2 9 -3 9 -5 0 -9 6 -9 13 0 6 -3 26 -7 42 -3 17 -9 48 -12 70 -8 49
-12 446 -5 460 2 5 5 39 5 75 1 36 5 71 9 78 5 7 4 12 -3 12 -7 0 -8 6 -2 18
9 18 9 471 -1 512 -3 14 -8 45 -12 70 -4 25 -8 54 -10 65 -1 11 -4 21 -5 23
-1 1 -3 10 -4 20 -1 9 -4 22 -7 27 -3 6 -12 30 -19 55 -7 25 -17 50 -22 56 -4
6 -9 23 -10 38 -1 14 -5 26 -9 26 -4 0 -9 9 -12 20 -3 13 -26 30 -62 45 -66
30 -73 35 -136 98 -92 95 -119 241 -68 382 7 19 17 35 22 35 4 0 6 4 2 9 -3 5
5 17 17 25 12 9 18 16 13 16 -5 0 8 16 30 36 42 37 142 89 185 96 45 7 124 1
170 -12z m-570 -636 c0 -7 3 -14 8 -16 8 -3 62 -74 62 -81 0 -2 -17 -7 -37
-10 -21 -3 -49 -8 -63 -11 -14 -4 -35 -8 -47 -10 -13 -3 -27 -7 -33 -11 -16
-10 -13 0 25 79 19 41 35 79 35 84 0 6 6 12 13 15 13 5 37 -20 37 -39z"/>
<path d="M6237 5116 c-23 -21 -36 -61 -36 -106 2 -94 -94 -250 -212 -345 -80
-65 -254 -149 -376 -181 -129 -34 -247 -52 -373 -59 -191 -11 -212 -20 -216
-95 -1 -31 4 -45 23 -65 26 -25 32 -27 88 -28 46 -1 257 13 285 18 14 3 48 9
76 15 28 6 62 13 76 15 109 20 338 109 433 168 148 92 290 244 326 347 6 16
14 30 19 30 4 0 7 8 7 18 -1 9 4 35 11 57 19 67 22 145 7 182 -23 55 -94 70
-138 29z"/>
</g>
</svg>
